<?xml version="1.0" standalone="no"?>
<!DOCTYPE svg PUBLIC "-//W3C//DTD SVG 20010904//EN"
 "http://www.w3.org/TR/2001/REC-SVG-20010904/DTD/svg10.dtd">
<svg version="1.0" xmlns="http://www.w3.org/2000/svg"
 width="310.000000pt" height="310.000000pt" viewBox="0 0 310.000000 310.000000"
 preserveAspectRatio="xMidYMid meet">
<metadata>
Created by potrace 1.14, written by Peter Selinger 2001-2017
</metadata>
<g transform="translate(0.000000,310.000000) scale(0.100000,-0.100000)"
fill="#000000" stroke="none">
<path d="M230 2835 l0 -265 -25 -12 c-28 -12 -31 -26 -12 -50 10 -13 41 -17
162 -22 83 -3 180 -6 218 -6 63 0 67 -1 67 -22 0 -13 -7 -32 -15 -42 -22 -29
-19 -36 15 -36 l30 0 -6 -57 c-5 -38 -13 -61 -23 -67 -9 -5 -45 -39 -81 -76
-39 -41 -79 -73 -100 -79 -19 -7 -51 -27 -70 -46 l-35 -34 -123 11 c-67 6
-125 8 -128 6 -3 -3 -1 -27 3 -54 l8 -49 63 -3 c43 -2 62 -7 62 -16 0 -20 -31
-43 -70 -53 -27 -7 -36 -15 -38 -34 -2 -16 -28 -51 -67 -89 l-65 -64 0 -377
c0 -324 2 -378 15 -383 8 -3 12 -12 9 -21 -6 -13 -1 -16 24 -14 4 0 6 7 4 15
-2 8 1 14 5 15 4 0 25 2 45 5 21 2 53 10 73 18 35 15 36 15 45 -10 6 -14 10
-30 10 -35 0 -5 5 -9 10 -9 15 0 12 28 -6 56 -15 21 -15 30 -4 63 13 41 10
141 -9 270 -10 69 -9 76 9 96 11 12 20 26 20 32 0 19 35 39 233 133 156 74
202 92 215 83 14 -8 31 -48 67 -155 4 -10 14 -18 24 -18 18 0 201 -63 274 -94
51 -22 61 -50 81 -226 10 -80 24 -186 32 -236 16 -107 18 -144 4 -144 -5 0
-39 11 -76 25 -88 33 -94 33 -94 -12 0 -47 -25 -77 -52 -62 -11 6 -30 8 -43 5
-14 -4 -55 4 -97 18 -40 13 -122 39 -183 56 -83 24 -128 44 -183 81 -83 55
-132 65 -132 27 -1 -47 -33 -90 -75 -103 -22 -6 -60 -22 -84 -34 -35 -18 -53
-22 -89 -16 -24 4 -51 9 -58 12 -11 4 -14 -14 -14 -95 l0 -100 68 -62 c85 -78
124 -100 247 -144 154 -56 173 -70 120 -94 -27 -13 -32 -33 -12 -50 13 -11
115 -30 302 -57 61 -8 122 -18 136 -21 21 -5 28 -1 34 18 7 21 8 20 12 -12 3
-23 18 -50 45 -79 l41 -44 -6 37 c-3 21 -2 36 4 36 16 0 64 -27 78 -44 7 -9
17 -14 21 -11 5 3 11 1 15 -5 3 -5 21 -10 38 -10 l32 1 -33 27 c-40 33 -34 43
24 35 58 -8 56 6 -4 51 -117 85 -192 200 -192 293 0 75 56 177 130 238 34 28
68 56 75 63 27 25 199 105 296 138 77 26 321 84 355 84 3 0 2 14 -1 32 -4 17
-9 54 -11 82 -10 133 -23 286 -29 331 -7 50 -7 51 46 117 36 44 62 68 79 70
22 3 25 8 24 43 0 22 -4 48 -8 58 -18 40 66 12 121 -40 16 -15 42 -37 58 -48
74 -52 70 -43 68 -165 -3 -127 -10 -143 -58 -134 -41 7 -104 -10 -153 -42 -32
-21 -41 -34 -46 -65 -4 -22 -2 -49 4 -60 6 -11 12 -52 14 -92 l3 -72 29 2
c271 14 342 14 454 4 263 -26 489 -75 663 -146 16 -7 17 8 17 235 l0 242 -46
-7 c-26 -3 -52 -8 -58 -11 -22 -8 -37 14 -47 72 -6 32 -17 82 -25 109 -11 43
-20 164 -15 216 1 20 35 34 124 49 l67 12 0 315 c0 191 -4 322 -10 333 -7 13
-7 21 0 25 5 3 10 28 10 56 0 44 -2 49 -22 49 l-21 0 6 258 c3 141 4 276 0
300 -5 36 -9 42 -29 42 l-24 0 0 -309 c0 -244 -3 -311 -13 -320 -33 -26 -37 8
-39 309 l-3 295 -2 -287 -3 -288 -23 0 c-12 0 -37 9 -54 20 l-33 20 0 282 c0
155 -3 279 -6 276 -3 -3 -8 -124 -12 -269 l-7 -264 -32 -3 c-26 -3 -33 -9 -38
-32 -10 -45 -25 -47 -62 -7 -39 44 -47 45 -69 12 -16 -25 -16 -26 35 -73 28
-26 51 -53 51 -59 0 -6 -9 -21 -19 -34 l-19 -24 -29 26 c-29 27 -73 44 -73 28
0 -4 9 -32 21 -60 11 -29 19 -64 17 -78 -3 -22 -9 -26 -39 -29 -24 -2 -42 3
-53 14 -15 15 -15 18 -1 40 22 35 20 63 -5 57 -24 -6 -58 20 -71 55 -6 15 -17
22 -37 22 -30 0 -52 13 -125 73 -50 42 -87 103 -87 146 0 15 -5 42 -10 61 -6
19 -8 59 -4 88 7 58 21 66 57 31 56 -54 103 -63 71 -14 -10 16 -12 25 -4 30
13 8 60 -21 60 -38 1 -21 65 -56 84 -45 9 5 29 8 44 6 20 -2 28 -9 30 -28 2
-14 13 -35 24 -47 19 -21 20 -21 39 -2 10 10 25 19 33 19 19 0 25 20 15 47
-10 27 6 40 26 23 23 -19 18 -52 -14 -89 l-29 -34 25 -39 c14 -21 27 -37 28
-36 2 2 13 20 24 42 18 32 20 43 11 71 -12 36 -5 65 16 65 16 0 74 60 74 77 0
7 -11 23 -25 37 -28 28 -33 48 -10 40 19 -7 20 17 3 63 -10 29 -10 35 7 46 21
16 12 37 -16 37 -20 0 -26 15 -9 25 24 15 6 25 -46 25 -36 0 -53 -4 -49 -11 9
-14 12 -149 4 -149 -4 0 -9 11 -13 23 -8 33 -54 77 -81 77 -13 0 -34 13 -48
30 -23 27 -31 30 -87 30 -75 0 -80 -10 -46 -83 33 -68 34 -93 2 -47 -61 89
-118 94 -80 7 10 -23 21 -44 25 -47 13 -11 29 -50 20 -50 -5 0 -38 15 -74 34
-36 19 -68 32 -71 29 -3 -4 -6 5 -6 20 0 36 -10 57 -27 57 -11 0 -8 9 11 31
14 17 26 35 26 40 0 15 -49 10 -76 -7 -23 -15 -26 -15 -44 1 -10 9 -27 15 -37
13 -15 -3 -18 -15 -21 -78 -3 -102 -8 -117 -42 -135 -35 -18 -41 -54 -10 -62
20 -5 21 -10 25 -93 1 -25 4 -52 5 -60 2 -8 2 -32 2 -52 l-2 -38 -79 0 c-63 0
-80 3 -85 16 -3 9 -7 75 -7 147 -1 73 -4 177 -8 232 l-6 100 -9 -160 c-4 -88
-12 -178 -16 -200 -7 -36 -8 -33 -9 30 -1 39 -4 108 -9 155 -7 81 -7 76 -17
-115 l-10 -200 -57 -3 c-32 -2 -58 1 -59 5 0 4 -2 49 -4 98 -4 98 -19 207 -31
227 -5 8 -12 -3 -20 -32 l-12 -45 -1 35 c-2 60 -18 69 -26 14 -3 -27 -7 -56
-8 -64 -2 -11 -13 -14 -41 -12 -23 2 -42 -1 -46 -8 -15 -25 -27 25 -34 139 -4
67 -12 124 -21 140 -13 25 -14 21 -16 -54 -1 -71 -2 -76 -11 -47 -6 17 -14 32
-18 32 -4 0 -12 -30 -16 -67 -8 -56 -13 -70 -31 -78 -13 -5 -23 -15 -23 -21 0
-6 -9 -19 -20 -29 -19 -17 -20 -17 -30 10 -8 22 -13 25 -25 15 -7 -6 -17 -25
-20 -41 -7 -32 -17 -36 -35 -14 -10 13 -17 12 -52 -6 -50 -26 -58 -17 -58 62
0 38 -5 61 -15 69 -13 10 -14 5 -12 -41 l2 -53 -36 2 c-45 4 -54 -9 -35 -46
l15 -29 -47 -7 c-87 -13 -96 -12 -100 9 -8 41 -22 39 -22 -3 0 -23 -4 -42 -10
-42 -5 0 -10 12 -10 28 -1 23 -2 25 -11 9 -5 -9 -7 -22 -4 -27 21 -34 -29 -70
-95 -70 -22 0 -40 -5 -40 -11 0 -6 -10 -9 -22 -7 -22 3 -22 6 -24 168 -4 238
-11 310 -33 310 -16 0 -19 -14 -25 -125 -4 -68 -5 -129 -1 -135 3 -5 2 -26 -4
-46 -6 -22 -6 -56 -1 -91 14 -87 5 -97 -86 -90 -40 3 -78 8 -84 12 -6 4 -10
60 -10 143 0 75 -3 181 -7 235 l-6 97 -34 0 -33 0 0 -265z m2269 169 c20 -25
20 -27 3 -49 -10 -14 -19 -18 -21 -12 -2 7 -7 14 -10 17 -3 3 -14 20 -24 38
l-18 32 25 0 c15 0 33 -10 45 -26z m-375 -35 c10 -52 7 -79 -9 -79 -17 0 -19
-7 -15 -67 1 -28 -2 -43 -10 -43 -9 0 -10 25 -5 102 7 95 6 101 -9 89 -24 -20
-31 -6 -12 24 13 20 20 23 35 16 10 -6 21 -25 25 -42z m430 -56 c8 3 19 -5 26
-18 11 -20 10 -30 -2 -57 -9 -18 -19 -43 -23 -56 -9 -32 -12 -27 -33 55 -20
78 -19 101 4 82 7 -6 20 -9 28 -6z m-894 -483 c102 -5 298 -14 435 -20 138 -6
258 -13 268 -16 16 -5 14 -10 -13 -40 -27 -31 -30 -42 -30 -98 0 -34 -7 -86
-16 -115 -9 -31 -13 -65 -9 -83 8 -36 -2 -98 -16 -98 -22 0 -132 107 -154 150
-28 56 -50 75 -94 84 -23 4 -60 29 -110 75 -42 38 -99 83 -126 100 -49 31 -52
32 -135 26 -47 -3 -107 -12 -135 -20 -27 -7 -64 -16 -81 -18 -17 -3 -45 -12
-62 -21 -17 -9 -48 -16 -69 -16 -21 0 -67 -7 -103 -14 -76 -16 -200 -10 -200
9 0 35 206 89 302 78 39 -5 46 -3 50 15 9 33 41 36 298 22z m1386 -1306 c20
-30 -2 -58 -38 -49 -34 9 -41 27 -21 54 18 26 40 24 59 -5z m-957 -41 c16 -16
32 -39 35 -53 5 -24 4 -25 -61 -28 -69 -3 -92 10 -93 51 -1 62 67 78 119 30z
m751 8 c0 -5 -13 -23 -30 -39 -24 -25 -41 -31 -92 -37 -35 -3 -76 -8 -91 -11
-26 -6 -28 -4 -25 23 4 34 45 51 128 53 30 1 64 5 75 10 27 12 35 12 35 1z
m-1820 -485 c0 -2 -7 -7 -16 -10 -8 -3 -12 -2 -9 4 6 10 25 14 25 6z m-50
-471 c0 -57 -11 -70 -31 -34 -14 27 -3 89 16 89 11 0 15 -14 15 -55z"/>
<path d="M761 3053 c4 -27 10 -61 12 -78 2 -16 5 5 8 48 3 66 2 77 -12 77 -14
0 -15 -7 -8 -47z"/>
<path d="M987 3019 c5 -35 3 -41 -16 -46 -24 -6 -23 -21 2 -37 13 -8 20 -7 27
4 11 17 13 80 4 104 -12 31 -22 16 -17 -25z"/>
<path d="M736 2908 c-8 -64 -8 -96 0 -110 12 -20 24 17 24 77 0 81 -15 103
-24 33z"/>
<path d="M2185 2730 c-9 -15 4 -30 26 -30 12 0 19 7 19 20 0 21 -33 29 -45 10z"/>
<path d="M2526 2375 c-3 -8 -1 -15 4 -15 6 0 10 7 10 15 0 8 -2 15 -4 15 -2 0
-6 -7 -10 -15z"/>
<path d="M24 2350 c3 -14 6 -31 6 -37 0 -7 5 -13 10 -13 15 0 12 34 -6 56 -15
18 -15 18 -10 -6z"/>
</g>
</svg>
